<?xml version="1.0" encoding="utf-8"?>
<!-- Generator: Adobe Illustrator 15.0.0, SVG Export Plug-In . SVG Version: 6.00 Build 0)  -->
<!DOCTYPE svg PUBLIC "-//W3C//DTD SVG 1.1//EN" "http://www.w3.org/Graphics/SVG/1.1/DTD/svg11.dtd">
<svg version="1.1" xmlns="http://www.w3.org/2000/svg" xmlns:xlink="http://www.w3.org/1999/xlink" x="0px" y="0px" width="300px"
	 height="300px" viewBox="0 0 300 300" enable-background="new 0 0 300 300" xml:space="preserve">
<g id="Layer_2">
	<g transform="translate(0.000000,300.000000) scale(0.050000,-0.050000)">
		<path fill="#124F96" d="M2514.931,5025.253c0-74.346-2.793-235.107-6.504-357.783c-3.721-122.656-7.432-413.525-8.359-645.84
			l-2.793-422.832H1756.64h-740.654l-39.951-134.746c-68.76-236.045-78.057-296.445-89.209-564.072
			C831.074,1625,1783.594,535.859,3033.476,442.949l188.633-13.945v394.941v395.879h-63.203
			c-732.246,0-1469.18,714.629-1484.971,1440.391l-3.73,148.691h408.887h408.887l24.16-120.82
			c65.049-331.738,315.967-582.637,621.709-624.473l88.262-12.07V3215.01v1164.385h108.73c138.457,0,428.418-72.48,571.523-143.115
			l109.648-54.814l4.648-681.162l4.648-682.119h798.262h797.305l-9.277,106.875c-76.211,881.904-547.344,1598.379-1295.41,1971.953
			C3895.839,5104.248,3614.277,5160,2966.562,5160h-450.693L2514.931,5025.253z"/>
	</g>
</g>
<g id="Layer_1">
	<g transform="translate(0.000000,300.000000) scale(0.050000,-0.050000)">
		<path fill="#2196F3" d="M2199.004,5375c0-80-3.008-252.998-7.002-385c-4.004-132.002-7.998-445-9.004-695L2180,3840h-797.002
			H585.996l-42.998-145c-73.994-254.004-83.994-319.004-95.996-607.002c-60-1372.002,965-2543.994,2310-2643.994l202.998-15v425
			V1280h-67.998c-787.998,0-1581.006,769.004-1597.998,1550L1290,2990h440h440l25.996-130c70-356.992,340-626.992,669.004-671.992
			l95-13.008v1252.002V4680h116.992c149.004,0,461.015-77.998,615-154.004L3810,4467.001l5-732.998l5-734.004h859.004h857.988
			l-10,115C5445,4064.003,4938.007,4835,4133.008,5237.001C3685,5460,3381.992,5520,2685,5520h-485L2199.004,5375z"/>
		<path fill="#1A78C2" d="M4580.996,2365c-175-430.996-560-815-970.996-968.008c-65.996-23.984-123.008-45.996-126.992-48.984
			c-4.004-3.008-12.012-201.016-17.012-439.004L3455,475l75.996,14.004C4434.004,658.008,5315.996,1540.996,5465,2425l9.004,55
			h-423.008h-424.003L4580.996,2365z"/>
	</g>
</g>
</svg>
